HIERARCHY
ROOT hip
{
  OFFSET 0 0 0
  CHANNELS 6 Xposition Yposition Zposition Zrotation Yrotation Xrotation
  JOINT abdomen
  {
    OFFSET 0 20.6881 -0.73152
    CHANNELS 3 Zrotation Xrotation Yrotation
    JOINT chest
    {
      OFFSET 0 11.7043 -0.48768
      CHANNELS 3 Zrotation Xrotation Yrotation
      JOINT neck
      {
        OFFSET 0 22.1894 -2.19456
        CHANNELS 3 Zrotation Xrotation Yrotation
        JOINT head
        {
          OFFSET -0.24384 7.07133 1.2192
          CHANNELS 3 Zrotation Xrotation Yrotation
          JOINT leftEye
          {
            OFFSET 4.14528 8.04674 8.04672
            CHANNELS 3 Zrotation Xrotation Yrotation
            End Site
            {
              OFFSET 1 0 0
            }
          }
          JOINT rightEye
          {
            OFFSET -3.6576 8.04674 8.04672
            CHANNELS 3 Zrotation Xrotation Yrotation
            End Site
            {
              OFFSET 1 0 0
            }
          }
        }
      }
      JOINT rCollar
      {
        OFFSET -2.68224 19.2634 -4.8768
        CHANNELS 3 Zrotation Xrotation Yrotation
        JOINT rShldr
        {
          OFFSET -8.77824 -1.95073 1.46304
          CHANNELS 3 Zrotation Xrotation Yrotation
          JOINT rForeArm
          {
            OFFSET -28.1742 -1.7115 0.48768
            CHANNELS 3 Zrotation Xrotation Yrotation
            JOINT rHand
            {
              OFFSET -22.5879 0.773209 7.07136
              CHANNELS 3 Zrotation Xrotation Yrotation
              JOINT rThumb1
              {
                OFFSET -1.2192 -0.487915 3.41376
                CHANNELS 3 Zrotation Xrotation Yrotation
                JOINT rThumb2
                {
                  OFFSET -3.37035 -0.52449 3.41376
                  CHANNELS 3 Zrotation Xrotation Yrotation
                  End Site
                  {
                    OFFSET -1.78271 -1.18214 1.43049
                  }
                }
              }
              JOINT rIndex1
              {
                OFFSET -7.75947 0.938293 5.60832
                CHANNELS 3 Zrotation Xrotation Yrotation
                JOINT rIndex2
                {
                  OFFSET -2.54057 -0.884171 1.56538
                  CHANNELS 3 Zrotation Xrotation Yrotation
                  End Site
                  {
                    OFFSET -1.62519 -0.234802 1.16502
                  }
                }
              }
              JOINT rMid1
              {
                OFFSET -8.24714 1.18213 3.41376
                CHANNELS 3 Zrotation Xrotation Yrotation
                JOINT rMid2
                {
                  OFFSET -3.10165 -0.590103 1.0647
                  CHANNELS 3 Zrotation Xrotation Yrotation
                  End Site
                  {
                    OFFSET -2.48547 -0.328903 0.83742
                  }
                }
              }
              JOINT rRing1
              {
                OFFSET -8.82822 0.546677 1.51678
                CHANNELS 3 Zrotation Xrotation Yrotation
                JOINT rRing2
                {
                  OFFSET -2.60934 -0.819778 -0.0198488
                  CHANNELS 3 Zrotation Xrotation Yrotation
                  End Site
                  {
                    OFFSET -2.33842 -0.294052 0.168128
                  }
                }
              }
              JOINT rPinky1
              {
                OFFSET -8.27202 -0.0477905 -0.4584
                CHANNELS 3 Zrotation Xrotation Yrotation
                JOINT rPinky2
                {
                  OFFSET -1.82734 -0.647385 -0.700984
                  CHANNELS 3 Zrotation Xrotation Yrotation
                  End Site
                  {
                    OFFSET -1.69225 -0.51767 -0.607171
                  }
                }
              }
            }
          }
        }
      }
      JOINT lCollar
      {
        OFFSET 2.68224 19.2634 -4.8768
        CHANNELS 3 Zrotation Xrotation Yrotation
        JOINT lShldr
        {
          OFFSET 8.77824 -1.95073 1.46304
          CHANNELS 3 Zrotation Xrotation Yrotation
          JOINT lForeArm
          {
            OFFSET 28.1742 -1.7115 0.48768
            CHANNELS 3 Zrotation Xrotation Yrotation
            JOINT lHand
            {
              OFFSET 22.5879 0.773209 7.07136
              CHANNELS 3 Zrotation Xrotation Yrotation
              JOINT lThumb1
              {
                OFFSET 1.2192 -0.487915 3.41376
                CHANNELS 3 Zrotation Xrotation Yrotation
                JOINT lThumb2
                {
                  OFFSET 3.37035 -0.52449 3.41376
                  CHANNELS 3 Zrotation Xrotation Yrotation
                  End Site
                  {
                    OFFSET 1.78271 -1.18214 1.43049
                  }
                }
              }
              JOINT lIndex1
              {
                OFFSET 7.75947 0.938293 5.60832
                CHANNELS 3 Zrotation Xrotation Yrotation
                JOINT lIndex2
                {
                  OFFSET 2.54057 -0.884171 1.56538
                  CHANNELS 3 Zrotation Xrotation Yrotation
                  End Site
                  {
                    OFFSET 1.62519 -0.234802 1.16502
                  }
                }
              }
              JOINT lMid1
              {
                OFFSET 8.24714 1.18213 3.41376
                CHANNELS 3 Zrotation Xrotation Yrotation
                JOINT lMid2
                {
                  OFFSET 3.10165 -0.590103 1.0647
                  CHANNELS 3 Zrotation Xrotation Yrotation
                  End Site
                  {
                    OFFSET 2.48547 -0.328903 0.83742
                  }
                }
              }
              JOINT lRing1
              {
                OFFSET 8.82822 0.546677 1.51678
                CHANNELS 3 Zrotation Xrotation Yrotation
                JOINT lRing2
                {
                  OFFSET 2.60934 -0.819778 -0.0198488
                  CHANNELS 3 Zrotation Xrotation Yrotation
                  End Site
                  {
                    OFFSET 2.33842 -0.294052 0.168128
                  }
                }
              }
              JOINT lPinky1
              {
                OFFSET 8.27202 -0.0477905 -0.4584
                CHANNELS 3 Zrotation Xrotation Yrotation
                JOINT lPinky2
                {
                  OFFSET 1.82734 -0.647385 -0.700984
                  CHANNELS 3 Zrotation Xrotation Yrotation
                  End Site
                  {
                    OFFSET 1.69225 -0.51767 -0.607171
                  }
                }
              }
            }
          }
        }
      }
    }
  }
  JOINT rButtock
  {
    OFFSET -8.77824 4.35084 1.2192
    CHANNELS 3 Zrotation Xrotation Yrotation
    JOINT rThigh
    {
      OFFSET 0 -1.70687 -2.19456
      CHANNELS 3 Zrotation Xrotation Yrotation
      JOINT rShin
      {
        OFFSET 0 -36.8199 0.73152
        CHANNELS 3 Zrotation Xrotation Yrotation
        JOINT rFoot
        {
          OFFSET 0.73152 -45.1104 -5.12064
          CHANNELS 3 Zrotation Xrotation Yrotation
          End Site
          {
            OFFSET -1.1221 -3.69964 12.103
          }
        }
      }
    }
  }
  JOINT lButtock
  {
    OFFSET 8.77824 4.35084 1.2192
    CHANNELS 3 Zrotation Xrotation Yrotation
    JOINT lThigh
    {
      OFFSET 0 -1.70687 -2.19456
      CHANNELS 3 Zrotation Xrotation Yrotation
      JOINT lShin
      {
        OFFSET 0 -36.8199 0.73152
        CHANNELS 3 Zrotation Xrotation Yrotation
        JOINT lFoot
        {
          OFFSET -0.73152 -45.1104 -5.12064
          CHANNELS 3 Zrotation Xrotation Yrotation
          End Site
          {
            OFFSET 1.1221 -3.69964 12.103
          }
        }
      }
    }
  }
}
MOTION
Frames:	7
Frame Time:	0.00833333
-0.355173 83.4474 -100.06 0.0 0.0 0.0 -0.93751 -0.00467891 -0.0260746 -0.258767 -0.00545768 -0.0448334 3.31483e-15 7.95139e-16 2.48481e-17 9.68143e-15 3.18055e-15 4.81432e-17 -0.0 0.0 0.0 -0.0 0.0 0.0 1.53929e-15 -2.32951e-18 4.96962e-17 3.6157e-14 2.23633e-16 1.19271e-15 5.8065e-13 -1.72346e-13 -5.08889e-14 6.60755e-12 1.74409e-13 7.63333e-14 1.55871e-11 -4.12801e-16 6.99722e-14 2.69051e-11 0.0 1.20066e-13 1.55891e-11 -1.59028e-15 6.36111e-14 7.73091 5.47488 0.417314 1.55868e-11 -9.93923e-16 7.63333e-14 2.90554 0.965183 0.102902 1.55986e-11 3.97569e-16 6.75868e-14 10.2786 0.731801 0.0259123 1.55795e-11 1.98785e-15 7.31528e-14 2.22167 -0.733487 -0.20892 1.54198e-15 -3.30014e-18 -4.96962e-17 3.10509e-14 1.36664e-16 -7.95139e-16 5.75084e-13 1.69365e-13 2.22639e-14 6.59415e-12 -1.87081e-13 9.54166e-15 1.55535e-11 -4.12399e-14 6.36111e-14 2.68665e-11 -6.99722e-14 1.13705e-13 1.55489e-11 -3.97569e-14 8.26944e-14 -7.73091 5.47488 -0.417314 1.55539e-11 -4.11484e-14 6.36111e-14 -2.90554 0.965183 -0.102902 1.55459e-11 -4.12478e-14 6.52014e-14 -10.2786 0.731801 -0.0259123 1.55581e-11 -3.77691e-14 6.04305e-14 -2.22167 -0.733487 0.20892 -2.03217e-16 0.0 -3.88251e-19 -0.229229 -1.95204 -0.0134916 -0.00909813 -2.01823 -0.0753457 -0.480994 3.96951 0.135142 2.03217e-16 0.0 3.88251e-19 -1.19838 -5.3633 0.104961 4.30093e-05 4.16078 -0.0211954 0.495331 1.20189 -0.0808229
-5.38924 81.5851 -103.44 168.639 -85.7559 -170.664 3.36115 11.3666 -0.575845 0.929095 -2.15553 0.0756679 -1.14517 1.40513 -0.790414 -3.23266 0.716036 -1.66839 -0.0 0.0 0.0 -0.0 0.0 0.0 -1.46622e-14 -4.08859e-14 -2.06161e-16 14.1397 -3.61599 9.81482 -2.7328 -1.04385 4.45988 0.0556272 5.23669 0.724917 -7.61254e-11 -1.80947e-10 8.08617e-11 -1.29808e-10 -3.14339e-10 1.41463e-10 -7.61236e-11 -1.80947e-10 8.08544e-11 7.73091 5.47488 0.417314 -7.61262e-11 -1.80947e-10 8.08654e-11 2.90554 0.965183 0.102902 -7.61157e-11 -1.80946e-10 8.086e-11 10.2786 0.731801 0.0259123 -7.61329e-11 -1.80945e-10 8.08657e-11 2.22167 -0.733487 -0.20892 -1.47069e-14 -4.08875e-14 -3.29237e-16 -23.1715 7.25647 2.51438 8.6678 -5.55125 -11.3364 -0.0169373 -2.89081 0.404418 3.25468e-10 -1.27577e-10 -1.45339e-11 5.62746e-10 -2.17502e-10 -2.20862e-11 3.25464e-10 -1.27578e-10 -1.45157e-11 -7.73091 5.47488 -0.417314 3.25469e-10 -1.27579e-10 -1.4533e-11 -2.90554 0.965183 -0.102902 3.25462e-10 -1.27579e-10 -1.45318e-11 -10.2786 0.731801 -0.0259123 3.25473e-10 -1.27577e-10 -1.45379e-11 -2.22167 -0.733487 0.20892 -2.03217e-16 0.0 -3.88251e-19 -3.86177 -9.64067 4.10753 -0.015673 8.60733 0.0476064 -0.592354 0.0208569 -0.419248 2.03217e-16 0.0 3.88251e-19 -0.946118 -11.0159 2.48246 0.037167 18.8843 -0.212162 0.623915 -1.43419 0.166636
-5.13383 81.492 -102.869 168.558 -86.0323 -170.348 8.16248 23.3911 -1.23037 2.19125 -4.42599 0.204474 -2.30576 2.89615 -1.6126 -6.61484 1.46121 -3.40615 -0.0 0.0 0.0 -0.0 0.0 0.0 -3.34694e-14 -9.25595e-14 2.20527e-16 30.2997 -6.80077 20.3572 -5.46765 -2.13771 9.2162 -0.0319359 10.7583 1.51007 -1.89939e-10 -4.07458e-10 1.86762e-10 -3.2422e-10 -7.07891e-10 3.26616e-10 -1.89938e-10 -4.07456e-10 1.86753e-10 7.73091 5.47488 0.417314 -1.89941e-10 -4.07457e-10 1.86763e-10 2.90554 0.965183 0.102902 -1.89932e-10 -4.07457e-10 1.86761e-10 10.2786 0.731801 0.0259123 -1.89947e-10 -4.07456e-10 1.86767e-10 2.22167 -0.733487 -0.20892 -3.35667e-14 -9.25622e-14 7.45444e-17 -48.3729 14.8846 5.30151 15.4687 -10.6865 -23.6396 0.00972265 -5.93031 0.833138 6.81362e-10 -2.63561e-10 -2.79523e-11 1.17806e-09 -4.49e-10 -4.17794e-11 6.81357e-10 -2.63563e-10 -2.7935e-11 -7.73091 5.47488 -0.417314 6.81362e-10 -2.63564e-10 -2.79503e-11 -2.90554 0.965183 -0.102902 6.81358e-10 -2.63565e-10 -2.79496e-11 -10.2786 0.731801 -0.0259123 6.81367e-10 -2.63564e-10 -2.79571e-11 -2.22167 -0.733487 0.20892 -2.03217e-16 0.0 -3.88251e-19 -6.41779 -17.6299 8.73878 -0.0746716 19.8425 0.18712 -0.788832 -4.10839 -0.985571 2.03217e-16 0.0 3.88251e-19 -0.103005 -16.9551 5.13625 0.205547 34.4743 -0.473744 0.780493 -4.18142 0.406596
-4.95576 81.4787 -102.221 166.801 -86.3246 -168.478 12.7295 34.095 -1.98235 3.33209 -6.45558 0.318529 -3.31897 4.21219 -2.37695 -9.57298 2.14082 -5.00828 -0.0 0.0 0.0 -0.0 0.0 0.0 -4.70651e-14 -1.22653e-13 -7.17877e-16 45.9964 -9.57793 29.8424 -7.71523 -3.05574 13.3968 -0.243655 15.6998 2.24964 -2.5955e-10 -5.42841e-10 2.42445e-10 -4.43235e-10 -9.43018e-10 4.24147e-10 -2.59549e-10 -5.42838e-10 2.42436e-10 7.73091 5.47488 0.417314 -2.59552e-10 -5.4284e-10 2.42443e-10 2.90554 0.965183 0.102902 -2.59544e-10 -5.4284e-10 2.42445e-10 10.2786 0.731801 0.0259123 -2.59558e-10 -5.42839e-10 2.42451e-10 2.22167 -0.733487 -0.20892 -4.72047e-14 -1.22656e-13 -8.88319e-16 -71.5414 21.5953 8.05117 19.6825 -14.0392 -35.0391 0.0728103 -8.67068 1.22572 9.45298e-10 -3.8265e-10 -4.3729e-11 1.63451e-09 -6.52365e-10 -6.6486e-11 9.45293e-10 -3.82653e-10 -4.37126e-11 -7.73091 5.47488 -0.417314 9.45298e-10 -3.82654e-10 -4.37262e-11 -2.90554 0.965183 -0.102902 9.45296e-10 -3.82655e-10 -4.37259e-11 -10.2786 0.731801 -0.0259123 9.45303e-10 -3.82655e-10 -4.37346e-11 -2.22167 -0.733487 0.20892 -2.03217e-16 0.0 -3.88251e-19 -7.55499 -24.489 13.4001 -0.18027 29.858 0.336472 -1.04552 -7.87366 -1.54192 2.03217e-16 0.0 3.88251e-19 1.06396 -22.1708 7.67132 0.537622 48.3286 -0.842224 0.949727 -6.70594 0.665917
-4.76322 81.3393 -101.582 164.845 -86.5948 -166.323 16.1476 41.5103 -2.70152 4.15003 -7.88312 0.393865 -4.04347 5.09359 -2.99142 -11.5531 2.66265 -6.26868 -0.0 0.0 0.0 -0.0 0.0 0.0 -4.76318e-14 -9.87968e-14 -5.06901e-15 58.5018 -12.343 36.4474 -9.09807 -3.61104 16.1207 -0.474587 19.2004 2.80532 -2.18654e-10 -4.50405e-10 1.72586e-10 -3.73753e-10 -7.82083e-10 3.02626e-10 -2.18652e-10 -4.50402e-10 1.72577e-10 7.73091 5.47488 0.417314 -2.18656e-10 -4.50404e-10 1.72583e-10 2.90554 0.965183 0.102902 -2.18649e-10 -4.50405e-10 1.72586e-10 10.2786 0.731801 0.0259123 -2.18661e-10 -4.50403e-10 1.72593e-10 2.22167 -0.733487 -0.20892 -4.7788e-14 -9.87968e-14 -5.26779e-15 -88.1652 26.175 10.2271 21.7797 -15.43 -43.1983 0.141562 -10.6648 1.51658 9.7934e-10 -4.59501e-10 -6.54017e-11 1.6938e-09 -7.85393e-10 -1.03726e-10 9.79336e-10 -4.59504e-10 -6.53858e-11 -7.73091 5.47488 -0.417314 9.79341e-10 -4.59505e-10 -6.53986e-11 -2.90554 0.965183 -0.102902 9.79339e-10 -4.59507e-10 -6.53986e-11 -10.2786 0.731801 -0.0259123 9.79346e-10 -4.59507e-10 -6.54081e-11 -2.22167 -0.733487 0.20892 -2.03217e-16 0.0 -3.88251e-19 -7.73406 -29.0076 17.1678 -0.292441 36.8249 0.468168 -1.30964 -10.7313 -2.05913 2.03217e-16 0.0 3.88251e-19 1.93217 -25.7173 9.52276 0.964362 57.8461 -1.27472 1.1145 -8.67383 0.970605
-4.72092 81.2608 -100.754 157.158 -86.9253 -158.637 17.5564 44.3374 -3.08625 4.50342 -8.4646 0.416244 -4.40237 5.32931 -3.41014 -12.2074 3.02734 -7.07779 -0.0 0.0 0.0 -0.0 0.0 0.0 -2.95913e-14 3.58361e-15 -1.25067e-14 66.0434 -16.2327 39.0947 -9.33769 -3.66502 16.6411 -0.615841 21.006 3.10397 9.25819e-11 -1.47242e-10 -3.60562e-11 1.58986e-10 -2.52504e-10 -6.29738e-11 9.25834e-11 -1.47241e-10 -3.60649e-11 7.73091 5.47488 0.417314 9.25795e-11 -1.47241e-10 -3.60589e-11 2.90554 0.965183 0.102902 9.2585e-11 -1.47242e-10 -3.60559e-11 10.2786 0.731801 0.0259123 9.25747e-11 -1.4724e-10 -3.60489e-11 2.22167 -0.733487 -0.20892 -2.97161e-14 3.5937e-15 -1.27475e-14 -94.8766 27.9194 11.2222 22.4759 -15.7564 -46.4798 0.179768 -11.6327 1.65941 6.29579e-10 -3.76003e-10 -5.57335e-11 1.08947e-09 -6.4569e-10 -9.08519e-11 6.29574e-10 -3.76003e-10 -5.57175e-11 -7.73091 5.47488 -0.417314 6.29579e-10 -3.76006e-10 -5.57306e-11 -2.90554 0.965183 -0.102902 6.29576e-10 -3.76007e-10 -5.57308e-11 -10.2786 0.731801 -0.0259123 6.29585e-10 -3.76008e-10 -5.57407e-11 -2.22167 -0.733487 0.20892 -2.03217e-16 0.0 -3.88251e-19 -7.94474 -30.6068 18.9841 -0.346364 39.488 0.532813 -1.50846 -12.3375 -2.47176 2.03217e-16 0.0 3.88251e-19 1.83164 -27.0218 10.2351 1.19418 61.2952 -1.50997 1.26691 -9.87076 1.36493
-4.47214 81.2228 -100.145 149.808 -87.2907 -150.746 17.3963 43.892 -3.12439 4.52324 -8.44194 0.400301 -4.51133 5.10647 -3.6869 -11.9226 3.27824 -7.56268 -0.0 0.0 0.0 -0.0 0.0 0.0 1.72243e-15 1.6191e-13 -2.22297e-14 69.6543 -21.3189 39.0929 -8.78334 -3.37138 15.5934 -0.656686 21.588 3.20056 5.91411e-10 3.11594e-10 -3.45591e-10 1.01313e-09 5.49241e-10 -6.05896e-10 5.91412e-10 3.11592e-10 -3.45598e-10 7.73091 5.47488 0.417314 5.91408e-10 3.11593e-10 -3.45592e-10 2.90554 0.965183 0.102902 5.91413e-10 3.11593e-10 -3.4559e-10 10.2786 0.731801 0.0259123 5.91404e-10 3.11596e-10 -3.45583e-10 2.22167 -0.733487 -0.20892 1.66309e-15 1.61935e-13 -2.25217e-14 -94.3056 27.6787 11.257 22.4457 -15.7926 -46.2463 0.185885 -11.8671 1.69369 8.62091e-12 -1.8279e-10 -2.55643e-11 1.62382e-11 -3.19475e-10 -4.54043e-11 8.61608e-12 -1.82784e-10 -2.55478e-11 -7.73091 5.47488 -0.417314 8.62191e-12 -1.8279e-10 -2.55621e-11 -2.90554 0.965183 -0.102902 8.61558e-12 -1.82791e-10 -2.55626e-11 -10.2786 0.731801 -0.0259123 8.6271e-12 -1.82792e-10 -2.55725e-11 -2.22167 -0.733487 0.20892 -2.03217e-16 0.0 -3.88251e-19 -8.53441 -30.246 19.1911 -0.337395 39.0789 0.533906 -1.64117 -13.0496 -2.80599 2.03217e-16 0.0 3.88251e-19 0.909156 -26.7517 10.058 1.12965 60.4113 -1.46 1.40759 -10.5162 1.82142
